<mxfile host="app.diagrams.net" agent="Mozilla/5.0 (Windows NT 10.0; Win64; x64) AppleWebKit/537.36 (KHTML, like Gecko) Chrome/131.0.0.0 Safari/537.36" version="24.9.0">
  <diagram name="Page-1" id="mGAxZFJw_4wc2jlLBIDZ">
    <mxGraphModel dx="1434" dy="818" grid="1" gridSize="10" guides="1" tooltips="1" connect="1" arrows="1" fold="1" page="1" pageScale="1" pageWidth="850" pageHeight="1100" math="0" shadow="0">
      <root>
        <mxCell id="0" />
        <mxCell id="1" parent="0" />
        <mxCell id="_-_DoKiHotS6fLyw2uJB-4" style="edgeStyle=orthogonalEdgeStyle;rounded=0;orthogonalLoop=1;jettySize=auto;html=1;exitX=1;exitY=0.5;exitDx=0;exitDy=0;entryX=0;entryY=0.5;entryDx=0;entryDy=0;entryPerimeter=0;" edge="1" parent="1" source="_-_DoKiHotS6fLyw2uJB-5" target="_-_DoKiHotS6fLyw2uJB-28">
          <mxGeometry relative="1" as="geometry">
            <mxPoint x="520" y="140" as="targetPoint" />
          </mxGeometry>
        </mxCell>
        <mxCell id="_-_DoKiHotS6fLyw2uJB-5" value="frontend target grp(3000)" style="whiteSpace=wrap;html=1;aspect=fixed;fillColor=#dae8fc;strokeColor=#6c8ebf;" vertex="1" parent="1">
          <mxGeometry x="360" y="100" width="80" height="80" as="geometry" />
        </mxCell>
        <mxCell id="_-_DoKiHotS6fLyw2uJB-6" style="edgeStyle=orthogonalEdgeStyle;rounded=0;orthogonalLoop=1;jettySize=auto;html=1;exitX=1;exitY=0.5;exitDx=0;exitDy=0;entryX=0;entryY=0.5;entryDx=0;entryDy=0;" edge="1" parent="1" source="_-_DoKiHotS6fLyw2uJB-7" target="_-_DoKiHotS6fLyw2uJB-5">
          <mxGeometry relative="1" as="geometry" />
        </mxCell>
        <mxCell id="_-_DoKiHotS6fLyw2uJB-7" value="listener 443" style="ellipse;whiteSpace=wrap;html=1;fillColor=#f8cecc;strokeColor=#b85450;" vertex="1" parent="1">
          <mxGeometry x="210" y="85" width="80" height="50" as="geometry" />
        </mxCell>
        <mxCell id="_-_DoKiHotS6fLyw2uJB-8" style="edgeStyle=orthogonalEdgeStyle;rounded=0;orthogonalLoop=1;jettySize=auto;html=1;exitX=1;exitY=0.5;exitDx=0;exitDy=0;entryX=0;entryY=0.25;entryDx=0;entryDy=0;" edge="1" parent="1" source="_-_DoKiHotS6fLyw2uJB-9" target="_-_DoKiHotS6fLyw2uJB-11">
          <mxGeometry relative="1" as="geometry" />
        </mxCell>
        <mxCell id="_-_DoKiHotS6fLyw2uJB-9" value="listener 444" style="ellipse;whiteSpace=wrap;html=1;fillColor=#f8cecc;strokeColor=#b85450;" vertex="1" parent="1">
          <mxGeometry x="210" y="190" width="80" height="50" as="geometry" />
        </mxCell>
        <mxCell id="_-_DoKiHotS6fLyw2uJB-10" style="edgeStyle=orthogonalEdgeStyle;rounded=0;orthogonalLoop=1;jettySize=auto;html=1;exitX=1;exitY=0.5;exitDx=0;exitDy=0;entryX=-0.013;entryY=0.385;entryDx=0;entryDy=0;entryPerimeter=0;" edge="1" parent="1" source="_-_DoKiHotS6fLyw2uJB-11" target="_-_DoKiHotS6fLyw2uJB-29">
          <mxGeometry relative="1" as="geometry">
            <mxPoint x="520" y="250" as="targetPoint" />
          </mxGeometry>
        </mxCell>
        <mxCell id="_-_DoKiHotS6fLyw2uJB-11" value="backend target grp(8080)" style="whiteSpace=wrap;html=1;aspect=fixed;fillColor=#dae8fc;strokeColor=#6c8ebf;" vertex="1" parent="1">
          <mxGeometry x="360" y="210" width="80" height="80" as="geometry" />
        </mxCell>
        <mxCell id="_-_DoKiHotS6fLyw2uJB-19" value="Database" style="outlineConnect=0;dashed=0;verticalLabelPosition=bottom;verticalAlign=top;align=center;html=1;shape=mxgraph.aws3.rds;fillColor=#2E73B8;gradientColor=none;" vertex="1" parent="1">
          <mxGeometry x="680" y="210" width="72" height="80" as="geometry" />
        </mxCell>
        <mxCell id="_-_DoKiHotS6fLyw2uJB-21" value="" style="endArrow=classic;startArrow=classic;html=1;rounded=0;entryX=0.5;entryY=1;entryDx=0;entryDy=0;exitX=0.5;exitY=0;exitDx=0;exitDy=0;" edge="1" parent="1">
          <mxGeometry width="50" height="50" relative="1" as="geometry">
            <mxPoint x="580" y="220" as="sourcePoint" />
            <mxPoint x="580" y="170" as="targetPoint" />
          </mxGeometry>
        </mxCell>
        <mxCell id="_-_DoKiHotS6fLyw2uJB-25" value="" style="edgeStyle=orthogonalEdgeStyle;rounded=0;orthogonalLoop=1;jettySize=auto;html=1;" edge="1" parent="1" source="_-_DoKiHotS6fLyw2uJB-24" target="_-_DoKiHotS6fLyw2uJB-9">
          <mxGeometry relative="1" as="geometry" />
        </mxCell>
        <mxCell id="_-_DoKiHotS6fLyw2uJB-26" style="edgeStyle=orthogonalEdgeStyle;rounded=0;orthogonalLoop=1;jettySize=auto;html=1;entryX=0;entryY=0.5;entryDx=0;entryDy=0;" edge="1" parent="1" source="_-_DoKiHotS6fLyw2uJB-24" target="_-_DoKiHotS6fLyw2uJB-7">
          <mxGeometry relative="1" as="geometry" />
        </mxCell>
        <mxCell id="_-_DoKiHotS6fLyw2uJB-24" value="" style="points=[];aspect=fixed;html=1;align=center;shadow=0;dashed=0;fillColor=#FF6A00;strokeColor=none;shape=mxgraph.alibaba_cloud.alb_application_load_balancer_02;" vertex="1" parent="1">
          <mxGeometry x="60" y="130" width="60" height="60" as="geometry" />
        </mxCell>
        <mxCell id="_-_DoKiHotS6fLyw2uJB-27" value="ALB" style="text;html=1;align=center;verticalAlign=middle;resizable=0;points=[];autosize=1;strokeColor=none;fillColor=none;" vertex="1" parent="1">
          <mxGeometry x="70" y="200" width="50" height="30" as="geometry" />
        </mxCell>
        <mxCell id="_-_DoKiHotS6fLyw2uJB-28" value="" style="sketch=0;points=[[0,0,0],[0.25,0,0],[0.5,0,0],[0.75,0,0],[1,0,0],[0,1,0],[0.25,1,0],[0.5,1,0],[0.75,1,0],[1,1,0],[0,0.25,0],[0,0.5,0],[0,0.75,0],[1,0.25,0],[1,0.5,0],[1,0.75,0]];outlineConnect=0;fontColor=#232F3E;fillColor=#ED7100;strokeColor=#ffffff;dashed=0;verticalLabelPosition=bottom;verticalAlign=top;align=center;html=1;fontSize=12;fontStyle=0;aspect=fixed;shape=mxgraph.aws4.resourceIcon;resIcon=mxgraph.aws4.fargate;" vertex="1" parent="1">
          <mxGeometry x="541" y="90" width="78" height="78" as="geometry" />
        </mxCell>
        <mxCell id="_-_DoKiHotS6fLyw2uJB-29" value="" style="sketch=0;points=[[0,0,0],[0.25,0,0],[0.5,0,0],[0.75,0,0],[1,0,0],[0,1,0],[0.25,1,0],[0.5,1,0],[0.75,1,0],[1,1,0],[0,0.25,0],[0,0.5,0],[0,0.75,0],[1,0.25,0],[1,0.5,0],[1,0.75,0]];outlineConnect=0;fontColor=#232F3E;fillColor=#ED7100;strokeColor=#ffffff;dashed=0;verticalLabelPosition=bottom;verticalAlign=top;align=center;html=1;fontSize=12;fontStyle=0;aspect=fixed;shape=mxgraph.aws4.resourceIcon;resIcon=mxgraph.aws4.fargate;" vertex="1" parent="1">
          <mxGeometry x="541" y="220" width="78" height="78" as="geometry" />
        </mxCell>
        <mxCell id="_-_DoKiHotS6fLyw2uJB-31" value="" style="endArrow=classic;startArrow=classic;html=1;rounded=0;entryX=0;entryY=0.78;entryDx=0;entryDy=0;entryPerimeter=0;" edge="1" parent="1" target="_-_DoKiHotS6fLyw2uJB-19">
          <mxGeometry width="50" height="50" relative="1" as="geometry">
            <mxPoint x="620" y="270" as="sourcePoint" />
            <mxPoint x="669" y="290" as="targetPoint" />
          </mxGeometry>
        </mxCell>
        <mxCell id="_-_DoKiHotS6fLyw2uJB-33" value="Frontend Fargate Service" style="text;html=1;align=center;verticalAlign=middle;whiteSpace=wrap;rounded=0;" vertex="1" parent="1">
          <mxGeometry x="515" y="40" width="150" height="30" as="geometry" />
        </mxCell>
        <mxCell id="_-_DoKiHotS6fLyw2uJB-34" value="Backend Fargate Service" style="text;html=1;align=center;verticalAlign=middle;whiteSpace=wrap;rounded=0;" vertex="1" parent="1">
          <mxGeometry x="515" y="310" width="150" height="30" as="geometry" />
        </mxCell>
      </root>
    </mxGraphModel>
  </diagram>
</mxfile>
